<?xml version="1.0" encoding="UTF-8" standalone="no"?>
<svg
   xmlns:dc="http://purl.org/dc/elements/1.1/"
   xmlns:cc="http://creativecommons.org/ns#"
   xmlns:rdf="http://www.w3.org/1999/02/22-rdf-syntax-ns#"
   xmlns:svg="http://www.w3.org/2000/svg"
   xmlns="http://www.w3.org/2000/svg"
   xmlns:sodipodi="http://sodipodi.sourceforge.net/DTD/sodipodi-0.dtd"
   xmlns:inkscape="http://www.inkscape.org/namespaces/inkscape"
   sodipodi:docname="logo-text-white.svg"
   inkscape:version="1.0 (4035a4fb49, 2020-05-01)"
   id="svg8"
   version="1.1"
   viewBox="0 0 351.36667 119.85625"
   height="119.85625mm"
   width="351.36667mm">
  <defs
     id="defs2" />
  <sodipodi:namedview
     inkscape:window-maximized="1"
     inkscape:window-y="28"
     inkscape:window-x="53"
     inkscape:window-height="1024"
     inkscape:window-width="1867"
     showgrid="false"
     inkscape:document-rotation="0"
     inkscape:current-layer="g851"
     inkscape:document-units="mm"
     inkscape:cy="191.56729"
     inkscape:cx="529.3798"
     inkscape:zoom="0.57931678"
     inkscape:pageshadow="2"
     inkscape:pageopacity="0.0"
     borderopacity="1.0"
     bordercolor="#666666"
     pagecolor="#ffffff"
     id="base" />
  <metadata
     id="metadata5">
    <rdf:RDF>
      <cc:Work
         rdf:about="">
        <dc:format>image/svg+xml</dc:format>
        <dc:type
           rdf:resource="http://purl.org/dc/dcmitype/StillImage" />
        <dc:title></dc:title>
      </cc:Work>
    </rdf:RDF>
  </metadata>
  <g
     transform="translate(65.15067,-90.043261)"
     id="layer1"
     inkscape:groupmode="layer"
     inkscape:label="Layer 1">
    <g
       transform="translate(10.160899,-18.151319)"
       id="g851">
      <path
         id="path855"
         d="m 121.40614,194.86742 c -9.99206,-2.28808 -17.62184,-9.96316 -19.59102,-19.70734 -0.55596,-2.75107 -0.4175,-8.81407 0.25694,-11.25114 2.36612,-8.54991 8.97988,-15.35209 17.25983,-17.75153 9.67412,-2.80345 20.27141,0.43165 26.46406,8.07885 1.93181,2.38555 3.89152,6.03949 4.75154,8.85936 0.66977,2.19609 0.72742,2.74129 0.74141,7.01146 0.0134,4.09666 -0.056,4.87412 -0.60203,6.74687 -2.41769,8.29157 -8.44952,14.5677 -16.57378,17.24508 -2.76636,0.91166 -3.12964,0.96583 -7.01841,1.04667 -2.81376,0.0585 -4.59934,-0.0289 -5.68854,-0.27828 z m 8.00365,-4.53335 c 0.1819,-0.0561 0.33073,-0.45632 0.33073,-0.88932 0,-0.63018 -1.98277,-11.82451 -2.52302,-14.24444 -0.0931,-0.41691 -0.32493,-0.59531 -0.7737,-0.59531 -0.35244,0 -0.71426,0.11885 -0.80404,0.26411 -0.0898,0.14527 -0.39789,1.66332 -0.6847,3.37344 -0.28682,1.71013 -0.82304,4.74915 -1.19162,6.75339 -0.36857,2.00424 -0.63303,4.0283 -0.58767,4.49792 0.08,0.82842 0.12578,0.85808 1.53766,0.996 1.41229,0.13796 4.02526,0.0513 4.69636,-0.15579 z m -6.36498,-4.15209 c 1.66115,-9.55517 1.95132,-11.38786 1.84759,-11.66916 -0.0618,-0.16758 -0.70901,0.94546 -1.43826,2.47343 -0.72925,1.52797 -2.23252,4.66824 -3.3406,6.97838 -1.72776,3.60207 -2.25025,4.92376 -1.94854,4.92902 0.0364,5.3e-4 0.89912,0.2928 1.9172,0.64926 1.16684,0.40854 1.9438,0.55535 2.10197,0.39718 0.13801,-0.13801 0.5253,-1.82916 0.86064,-3.75811 z m 10.52992,3.09419 c 0.91042,-0.3477 1.12533,-0.55048 1.06501,-1.00495 -0.10903,-0.82152 -6.47751,-13.66622 -6.7758,-13.66622 -0.13759,0 -0.19236,0.26789 -0.12171,0.59531 0.30898,1.43179 1.46612,7.70105 1.86794,10.12031 0.2417,1.45521 0.55692,3.10653 0.70048,3.66961 0.25227,0.98944 0.29224,1.0187 1.19226,0.87265 0.51218,-0.0831 1.4445,-0.34714 2.07182,-0.58671 z m -14.79385,-3.75987 c 0.68905,-1.41731 2.19386,-4.53554 3.34403,-6.9294 l 2.09121,-4.35248 -0.60288,-0.45475 c -0.58651,-0.4424 -0.63185,-0.42861 -1.66957,0.50784 -2.57395,2.32274 -9.93024,9.71409 -9.93024,9.97757 0,0.69532 4.79451,4.27322 5.30418,3.95823 0.11575,-0.0715 0.77422,-1.28969 1.46327,-2.70701 z m 18.90067,1.62169 c 1.71621,-1.13582 3.17147,-2.46051 3.17147,-2.88691 0,-0.16736 -2.44643,-2.66085 -5.43651,-5.5411 -5.13627,-4.9476 -5.47235,-5.22049 -6.08542,-4.94116 -0.3569,0.16262 -0.64891,0.40768 -0.64891,0.54459 0,0.42697 6.40285,13.37763 6.7154,13.58285 0.50107,0.32899 0.78214,0.23568 2.28397,-0.75827 z m -20.49876,-8.93445 c 3.05045,-2.96851 5.48431,-5.46132 5.40859,-5.53958 -0.13238,-0.13683 -3.19704,1.46522 -10.37951,5.42586 -1.85539,1.02312 -3.37344,2.00742 -3.37344,2.18733 0,0.49887 2.10092,3.32368 2.47194,3.32368 0.17938,0 2.82197,-2.42878 5.87242,-5.39729 z m 25.89281,3.71933 c 0.81162,-1.14781 1.00768,-1.61487 0.80966,-1.92879 -0.29144,-0.46202 -13.33571,-7.34464 -13.5375,-7.14286 -0.11764,0.11764 2.87033,3.06356 8.72202,8.59926 1.27479,1.20596 2.45665,2.14637 2.62634,2.0898 0.1697,-0.0566 0.79047,-0.7844 1.37948,-1.61741 z m -33.09366,-3.19981 c 0.608,-0.35444 3.6116,-1.99155 6.67468,-3.63802 5.28699,-2.84188 5.5611,-3.02711 5.40901,-3.65504 -0.20821,-0.85963 -0.16409,-0.86165 -8.66313,0.39596 l -6.94532,1.0277 v 0.88401 c 0,1.5396 1.55658,5.62983 2.1425,5.62983 0.15225,0 0.77427,-0.29 1.38226,-0.64444 z m 35.32417,-1.00921 c 0.6987,-1.77817 1.09981,-3.31513 1.10168,-4.22134 0.001,-0.60252 -0.13442,-0.73786 -0.85842,-0.85638 -3.00892,-0.49255 -14.36516,-1.94224 -14.5106,-1.85235 -0.0972,0.0601 -0.23407,0.40915 -0.30415,0.77572 -0.11853,0.62008 0.10499,0.78488 3.20956,2.36631 1.83533,0.9349 4.76571,2.47903 6.51196,3.4314 1.74625,0.95238 3.42906,1.73477 3.73959,1.73865 0.43782,0.005 0.68712,-0.3048 1.11038,-1.38201 z m -30.75375,-6.56209 c 3.90587,-0.5896 7.14363,-1.11405 7.19504,-1.16545 0.1648,-0.1648 -5.83504,-1.06807 -14.16574,-2.13263 l -1.38906,-0.17751 v 2.27379 c 0,2.21779 0.0155,2.27379 0.62909,2.27379 0.346,0 3.82481,-0.4824 7.73067,-1.07199 z m 32.06668,-1.28244 0.0775,-2.22213 -1.66498,0.15665 c -2.02911,0.19091 -14.04102,2.02338 -14.18102,2.16337 -0.0551,0.0551 0.41676,0.17588 1.04856,0.26841 8.06506,1.18116 13.68434,1.93817 14.11331,1.90131 0.47672,-0.041 0.53685,-0.26573 0.60665,-2.26761 z m -24.43496,-1.24867 c 0.0956,-0.38097 0.1383,-0.72466 0.0948,-0.76374 -0.55033,-0.49489 -13.32682,-7.01942 -13.62875,-6.95975 -0.49984,0.0988 -1.86961,3.4155 -2.09764,5.07916 -0.19112,1.39443 -0.97806,1.14496 6.78383,2.15059 2.83766,0.36765 5.75469,0.77099 6.48229,0.89632 2.08688,0.35945 2.17808,0.34393 2.36544,-0.40258 z m 14.03873,-0.10028 c 2.03729,-0.30411 5.13291,-0.75797 6.87916,-1.00859 l 3.175,-0.45567 -0.0421,-0.88418 c -0.0565,-1.18662 -1.11805,-4.43526 -1.6734,-5.12109 -0.44518,-0.54978 -0.45248,-0.5475 -3.59862,1.12266 -3.22237,1.71063 -10.23287,5.54943 -10.37532,5.68131 -0.0435,0.0402 0.002,0.39521 0.1006,0.78882 0.1584,0.63112 0.27713,0.69877 1.00507,0.57266 0.45399,-0.0786 2.49232,-0.39181 4.52961,-0.69592 z m -18.78542,-6.49056 c -3.05594,-2.97288 -5.70532,-5.40776 -5.88753,-5.41085 -0.30688,-0.005 -2.7162,3.01751 -2.70758,3.39691 0.004,0.16325 13.75014,7.4472 14.01907,7.42841 0.0728,-0.005 -2.36802,-2.44159 -5.42396,-5.41447 z m 21.12159,0.86774 c 2.74011,-1.45563 5.0469,-2.8157 5.12621,-3.02237 0.15973,-0.41626 -2.02701,-3.39414 -2.49241,-3.39414 -0.27995,0 -10.65827,10.07307 -11.07794,10.75212 -0.11137,0.1802 0.62205,-0.12611 1.62982,-0.68069 1.00777,-0.55457 4.07422,-2.19929 6.81432,-3.65492 z m -14.2728,3.28993 c 0.0723,-0.11693 -1.43915,-3.39953 -3.3587,-7.29468 l -3.49009,-7.08209 -1.98437,1.31574 c -1.09141,0.72366 -2.33477,1.68591 -2.76303,2.13834 l -0.77866,0.82261 2.73974,2.57807 c 1.50686,1.41794 4.05991,3.84571 5.67345,5.39506 2.34053,2.24741 3.02434,2.76872 3.38199,2.57826 0.24656,-0.1313 0.50741,-0.33439 0.57967,-0.45131 z m 16.26045,-10.18837 c 0.0542,-0.11955 -0.18214,-0.51711 -0.52516,-0.88347 -0.65527,-0.69988 -4.35617,-3.26481 -4.71074,-3.26481 -0.11345,0 -0.51352,0.68461 -0.88904,1.52135 -0.37552,0.83675 -1.89268,4.01631 -3.37147,7.06569 l -2.68872,5.54433 0.60229,0.4877 0.60229,0.4877 5.44101,-5.37057 c 2.99256,-2.95382 5.48535,-5.46838 5.53954,-5.58792 z m -15.57546,8.54836 c -0.12873,-0.653 -0.72404,-3.86617 -1.32291,-7.14039 -0.59887,-3.27422 -1.14265,-6.22261 -1.2084,-6.55199 -0.10039,-0.50294 -0.23514,-0.57115 -0.84121,-0.42585 -1.41253,0.33863 -3.4998,1.19897 -3.4998,1.44256 0,0.35391 6.88985,14.07946 7.00813,13.96118 0.054,-0.054 -0.007,-0.63252 -0.13581,-1.28551 z m 6.35017,-5.87037 c 1.7761,-3.73988 3.15299,-6.92321 3.05976,-7.07407 -0.0932,-0.15086 -1.01003,-0.52959 -2.03731,-0.84162 -1.38958,-0.42207 -1.91723,-0.48733 -2.06088,-0.2549 -0.1062,0.17183 -0.39785,1.70546 -0.64811,3.40806 -0.25026,1.7026 -0.8051,5.01363 -1.23299,7.35784 -0.42788,2.34422 -0.77796,4.36233 -0.77796,4.48469 0,0.57229 0.69873,-0.76565 3.69749,-7.08 z m -4.21955,6.86592 c 0.004,-0.0364 0.30287,-1.73302 0.66437,-3.77032 1.44879,-8.16494 1.98689,-11.58503 1.84506,-11.72685 -0.28047,-0.28048 -6.21711,-0.15653 -6.50955,0.13591 -0.20331,0.2033 -0.0912,1.25858 0.39182,3.6889 0.37213,1.87227 0.9808,5.13053 1.3526,7.24059 0.3718,2.11005 0.72844,3.98528 0.79254,4.16718 0.0935,0.26528 1.43699,0.50823 1.46316,0.26459 z M 19.75216,191.95564 c -2.636295,-0.85386 -4.12696,-1.79164 -6.217515,-3.91143 -3.145076,-3.18906 -4.9836417,-8.19497 -4.6143548,-12.56361 0.75293,-8.90716 8.0196218,-15.46233 16.4344248,-14.82525 7.536013,0.57054 13.157155,6.42789 14.02189,14.6111 0.500168,4.73323 -1.513147,10.03289 -5.082575,13.37889 -1.733309,1.62482 -4.570777,3.18114 -6.682681,3.66539 -2.145771,0.49201 -5.746002,0.32934 -7.859189,-0.35509 z m 7.238312,-7.33438 c 3.210118,-1.20106 5.118793,-4.19596 5.118793,-8.03189 0,-3.58863 -1.649701,-6.34753 -4.691091,-7.8452 -1.758577,-0.86598 -4.737391,-0.86998 -6.367185,-0.009 -1.653003,0.87369 -3.021711,2.20654 -3.907065,3.8047 -0.714785,1.29026 -0.777351,1.61623 -0.777163,4.04906 1.8e-4,2.35086 0.07822,2.79332 0.700034,3.96875 2.063203,3.90015 6.024428,5.52203 9.923677,4.06314 z m 175.142188,7.5727 c -3.85723,-1.05908 -7.9175,-4.36773 -9.62435,-7.84276 -2.36601,-4.81703 -2.49418,-9.90188 -0.36775,-14.59162 5.15658,-11.37258 20.27002,-12.33751 26.70149,-1.70477 2.37223,3.92187 2.96056,9.11523 1.55742,13.74799 -1.45878,4.81658 -5.90061,9.10851 -10.76677,10.40351 -1.77639,0.47273 -5.75723,0.46618 -7.50004,-0.0123 z m 7.38455,-7.92244 c 1.76633,-0.86419 3.31345,-2.68104 3.97243,-4.665 0.63769,-1.91997 0.44838,-5.21969 -0.39656,-6.91152 -2.25142,-4.50802 -7.62244,-6.03247 -11.51165,-3.26735 -2.35575,1.67489 -3.61905,4.26827 -3.60913,7.40905 0.005,1.5805 0.14319,2.12746 0.95001,3.75995 1.04259,2.10952 2.26005,3.26514 4.31432,4.09515 1.7671,0.71399 4.31001,0.54383 6.28058,-0.42028 z m -260.600505,7.11562 c -0.372033,-0.37203 -0.415774,-3.01207 -0.415774,-25.09441 0,-23.98584 0.01424,-24.69152 0.50717,-25.13762 0.465654,-0.42141 1.261604,-0.45057 9.723437,-0.35624 l 9.216268,0.10274 2.116667,0.72802 c 5.566603,1.91459 9.283131,6.13215 10.469449,11.88086 2.052235,9.94483 -2.828957,18.59997 -11.664088,20.6823 -1.253513,0.29544 -3.230562,0.40544 -7.338173,0.4083 l -5.622396,0.004 v 8.28145 c 0,6.08836 -0.08408,8.36554 -0.3175,8.59896 -0.512805,0.51281 -6.14693,0.42986 -6.67506,-0.0983 z m 19.361164,-25.09411 c 1.976916,-0.9036 3.543654,-2.50463 4.504248,-4.60284 0.583036,-1.27352 0.683284,-1.85563 0.668676,-3.8828 -0.02027,-2.81124 -0.441669,-4.14685 -1.930686,-6.11904 -0.789537,-1.04573 -1.484169,-1.60146 -2.831454,-2.26524 l -1.785255,-0.87957 -5.497068,-0.0853 -5.497065,-0.0853 v 9.23548 c 0,5.07951 0.0893,9.3261 0.198437,9.43686 0.109141,0.11076 2.520156,0.15681 5.357813,0.10233 5.010742,-0.0962 5.206994,-0.12081 6.812354,-0.85457 z m 17.582229,25.19238 c -0.458152,-0.45815 -0.458152,-29.33393 0,-29.79208 0.463132,-0.46313 5.0807464,-0.42981 5.4702184,0.0395 0.2340663,0.28204 0.8268652,2.64164 0.8268652,3.29129 0,0.0751 0.7106577,-0.5414 1.5792398,-1.36988 2.0776882,-1.98178 4.0254343,-2.86723 6.64008919,-3.01859 2.11025051,-0.12216 4.40312181,0.35569 5.77445191,1.20343 1.2096565,0.74779 2.1458026,1.73618 2.1458026,2.26555 0,0.50728 -2.5085093,4.82805 -2.9678313,5.11192 -0.1307412,0.0808 -0.6773227,-0.14175 -1.214628,-0.49456 -3.32821756,-2.18543 -7.6150735,-1.54426 -9.8722286,1.47656 -0.5268781,0.70514 -1.0924567,1.73098 -1.256845,2.27966 -0.1962705,0.6551 -0.2988839,4.03459 -0.2988839,9.84366 0,6.5275 -0.083217,8.92929 -0.3175,9.16357 -0.4366868,0.43669 -6.0720633,0.43669 -6.5087503,0 z m 58.570967,-0.033 c -0.529307,-0.38704 -0.719651,1.93902 2.114798,-25.84325 0.512207,-5.02047 1.260767,-12.4818 1.663465,-16.58073 0.477422,-4.85953 0.855078,-7.6007 1.085395,-7.87821 0.300498,-0.36208 0.929976,-0.41471 4.217733,-0.3526 l 3.864518,0.073 0.452646,0.92604 c 0.248957,0.50933 1.098056,2.77151 1.88689,5.02709 1.887712,5.39768 4.483642,12.72813 6.652477,18.78541 0.96393,2.69214 2.20804,6.20448 2.764692,7.80521 0.556651,1.60073 1.156586,3.26761 1.333188,3.70417 l 0.321093,0.79375 0.734581,-2.11667 c 1.563777,-4.50597 5.091795,-14.50953 6.765137,-19.18229 0.964067,-2.69214 2.522188,-7.09592 3.462491,-9.78619 0.9403,-2.69027 1.886167,-5.16082 2.101924,-5.4901 0.377319,-0.57587 0.537207,-0.59871 4.190251,-0.59871 2.94459,0 3.867497,0.0838 4.107429,0.37289 0.310451,0.37407 1.161497,7.74913 2.659015,23.04273 0.756957,7.73053 2.178785,22.01834 2.518193,25.30508 0.227406,2.20214 0.0043,2.34388 -3.688591,2.34388 -3.351594,0 -3.558051,-0.0979 -3.744169,-1.77556 -0.330399,-2.97817 -1.53638,-15.4991 -2.349675,-24.39516 -0.511037,-5.58989 -0.986329,-10.2206 -1.056201,-10.29047 -0.144279,-0.14428 -0.130952,-0.17675 -1.17395,2.85911 -0.424961,1.23693 -1.505675,4.27302 -2.401589,6.74688 -0.895914,2.47385 -2.028584,5.62901 -2.517045,7.01145 -0.48846,1.38245 -1.55824,4.35901 -2.377284,6.61459 -0.819047,2.25557 -1.908476,5.29166 -2.420956,6.74687 -1.433846,4.07146 -1.138343,3.83646 -4.824182,3.83646 -3.482472,0 -3.724706,-0.10664 -4.20688,-1.85208 -0.234233,-0.84791 -4.094443,-11.64995 -5.389423,-15.08125 -0.302059,-0.80037 -0.94297,-2.58631 -1.424244,-3.96875 -2.000179,-5.74545 -4.325654,-12.1561 -4.564412,-12.58274 -0.18987,-0.33928 -0.30327,0.0808 -0.440288,1.63111 -0.101502,1.14845 -0.5325,5.60043 -0.957775,9.89329 -0.425276,4.29287 -1.017061,10.48412 -1.31508,13.75834 -0.791999,8.70138 -0.95844,10.02024 -1.319472,10.45526 -0.441153,0.53155 -6.007682,0.56645 -6.7247,0.0421 z m 114.466535,0.033 c -0.23693,-0.23692 -0.3175,-3.15478 -0.3175,-11.49778 v -11.18028 l -1.91823,-0.0777 -1.91823,-0.0777 -0.0745,-3.27009 c -0.0498,-2.185 0.0268,-3.39217 0.23083,-3.63802 0.20213,-0.24354 0.87371,-0.36793 1.98651,-0.36793 h 1.68114 l 0.0724,-4.56406 0.0724,-4.56407 1.45521,-0.71049 c 0.80036,-0.39076 2.27242,-1.04022 3.27123,-1.44323 2.58443,-1.0428 2.5496,-1.1217 2.5496,5.77617 v 5.50568 h 3.42069 c 4.36271,0 4.25223,-0.0937 4.25223,3.60817 0,1.52714 -0.12325,3.00692 -0.27389,3.28839 -0.24997,0.46707 -0.58505,0.51177 -3.83646,0.51177 h -3.56257 v 10.99761 c 0,7.07495 -0.0977,11.18014 -0.27389,11.50937 -0.24696,0.46145 -0.57995,0.51177 -3.38666,0.51177 -2.06827,0 -3.21932,-0.10654 -3.43028,-0.3175 z m 19.31458,0 c -0.45815,-0.45815 -0.45815,-29.33393 0,-29.79208 0.43669,-0.43669 6.07207,-0.43669 6.50875,0 0.23935,0.23934 0.3175,3.94482 0.3175,15.05294 0,13.19272 -0.0438,14.75226 -0.41851,14.89604 -0.79637,0.3056 -6.07448,0.17636 -6.40774,-0.1569 z m 48.94792,0 c -0.45815,-0.45815 -0.45815,-29.33393 0,-29.79208 0.44312,-0.44311 5.08185,-0.43183 5.44039,0.0132 0.14653,0.1819 0.34859,0.74745 0.44902,1.25677 0.39357,1.99597 0.32917,1.97694 1.88331,0.55654 0.7892,-0.72129 2.1195,-1.6476 2.95619,-2.05847 1.40142,-0.68815 1.76109,-0.74703 4.56401,-0.74703 2.7537,0 3.18767,0.0679 4.56888,0.71518 1.85761,0.87049 4.12834,3.07876 5.06354,4.92428 1.43015,2.82226 1.54948,3.86531 1.67346,14.62671 0.10576,9.18082 0.0792,9.98282 -0.34464,10.40667 -0.39326,0.39324 -0.8876,0.44661 -3.43996,0.37132 -1.63938,-0.0483 -3.07959,-0.18693 -3.20048,-0.30796 -0.12086,-0.12103 -0.27929,-4.52634 -0.35205,-9.78958 -0.15145,-10.95599 -0.12563,-10.82417 -2.45745,-12.53589 -1.13504,-0.83319 -1.59078,-0.99923 -2.9867,-1.08811 -0.90598,-0.0577 -2.09132,0.0417 -2.63406,0.22078 -1.25672,0.41476 -2.9075,1.90165 -3.64876,3.28647 -0.55539,1.03759 -0.57902,1.40973 -0.65529,10.32535 -0.0521,6.08469 -0.17632,9.36603 -0.36315,9.59115 -0.38258,0.46101 -6.05842,0.4825 -6.51626,0.0247 z m -47.14875,-39.28208 c -3.5346,-1.45494 -3.90896,-6.53312 -0.62355,-8.45849 0.96478,-0.5654 1.41261,-0.66761 2.47697,-0.56534 2.40886,0.23146 3.96741,2.02685 3.96741,4.57029 0,2.60999 -1.59414,4.39416 -4.05398,4.53722 -0.75349,0.0438 -1.54857,0.006 -1.76685,-0.0837 z"
         style="fill:#eef7fb;stroke-width:0.264583" />
    </g>
  </g>
</svg>
